<?xml version="1.0" standalone="no"?>
<!DOCTYPE svg PUBLIC "-//W3C//DTD SVG 20010904//EN"
 "http://www.w3.org/TR/2001/REC-SVG-20010904/DTD/svg10.dtd">
<svg version="1.0" xmlns="http://www.w3.org/2000/svg"
 width="720.000000pt" height="720.000000pt" viewBox="0 0 720.000000 720.000000"
 preserveAspectRatio="xMidYMid meet">
<metadata>
Created by potrace 1.14, written by Peter Selinger 2001-2017
</metadata>
<g transform="translate(0.000000,720.000000) scale(0.100000,-0.100000)"
fill="#000000" stroke="none">
<path d="M3848 6303 c-22 -25 -82 -148 -143 -291 l-52 -123 -129 -108 c-139
-117 -169 -149 -285 -311 l-76 -105 -329 0 c-181 -1 -401 -4 -489 -9 l-161 -8
-43 138 c-96 307 -125 391 -177 512 -92 213 -165 318 -215 310 -18 -2 -32 -19
-56 -68 -61 -124 -199 -623 -278 -1000 -112 -539 -163 -712 -284 -980 -133
-294 -211 -421 -409 -674 -113 -145 -123 -164 -130 -242 -4 -58 -2 -66 31
-121 67 -109 239 -253 427 -356 69 -38 301 -141 385 -172 28 -9 53 -20 57 -24
4 -3 -4 -29 -18 -57 -47 -96 -29 -256 47 -405 26 -53 27 -58 14 -95 -35 -97
-1 -284 94 -521 16 -42 22 -89 30 -250 6 -109 17 -254 26 -323 26 -208 77
-504 89 -518 23 -25 384 -199 526 -255 367 -142 693 -211 1125 -238 496 -31
1078 69 1548 267 l89 37 -7 33 c-3 18 -21 145 -40 281 -20 136 -62 395 -95
576 -107 582 -112 605 -196 872 -25 77 -71 247 -104 378 -33 131 -67 251 -75
267 -22 42 -20 161 3 190 12 14 65 38 162 69 306 101 660 289 920 489 193 148
491 473 592 645 86 148 153 309 249 597 54 162 110 340 125 395 78 289 90 345
83 357 -9 15 -10 12 -32 -77 -62 -256 -130 -481 -250 -825 -59 -173 -98 -262
-170 -393 -173 -315 -535 -669 -902 -882 -27 -16 -63 -37 -80 -47 -60 -35
-210 -111 -299 -150 -84 -37 -338 -128 -357 -128 -4 0 -3 15 2 33 13 44 3 80
-37 133 -34 44 -34 45 -27 116 6 66 10 76 46 115 56 61 126 104 253 156 214
88 496 225 599 293 101 67 217 170 287 254 29 36 56 67 61 68 4 2 7 12 7 23 0
16 -19 4 -84 -53 -192 -167 -291 -240 -430 -317 -187 -103 -373 -162 -526
-164 l-95 -2 -3 32 c-4 44 53 196 148 388 86 176 109 215 219 373 102 147 186
245 375 436 179 181 228 221 252 212 14 -5 16 -16 11 -66 -4 -33 -3 -60 2 -60
10 0 116 201 150 283 25 62 19 87 -22 87 -86 0 -489 -318 -678 -535 -76 -88
-199 -244 -243 -309 -132 -193 -290 -508 -322 -639 -11 -47 -22 -39 -29 20 -3
32 -22 159 -41 283 -19 124 -34 235 -34 248 0 13 21 62 46 109 49 92 218 352
256 393 13 14 48 54 78 90 116 137 300 310 456 427 132 100 166 125 287 206
206 139 307 200 554 331 92 49 162 91 155 94 -10 3 -126 -55 -342 -171 -80
-43 -275 -167 -438 -279 -289 -199 -454 -341 -660 -568 -120 -132 -209 -252
-300 -405 -80 -134 -102 -168 -108 -162 -2 2 -20 86 -39 188 -19 101 -45 234
-57 294 -20 101 -22 143 -22 495 -1 348 -3 396 -23 500 -36 194 -66 292 -96
312 -13 8 -57 -13 -120 -60 -27 -19 -52 -31 -57 -26 -4 5 -18 34 -31 64 -38
90 -59 120 -83 120 -13 0 -30 -8 -38 -17z m345 -154 c28 -80 55 -217 72 -367
16 -143 20 -613 5 -577 -4 11 -27 99 -50 195 -50 209 -84 330 -155 547 l-53
162 36 28 c54 42 106 73 117 69 5 -1 18 -27 28 -57z m-573 -325 c0 -3 -22 -63
-49 -133 -27 -69 -65 -169 -85 -221 -20 -52 -40 -101 -44 -108 -10 -16 -242
-5 -242 11 0 18 111 174 175 246 40 45 226 211 237 211 4 0 8 -3 8 -6z m21
-1133 c239 -91 466 -521 444 -841 -12 -184 -41 -249 -164 -370 -67 -67 -104
-95 -171 -128 -129 -63 -252 -79 -375 -46 -82 21 -134 54 -225 140 -96 92
-160 208 -180 325 -24 143 0 386 55 539 55 155 158 287 265 339 128 63 255 78
351 42z m-1541 -70 c36 -18 82 -50 104 -70 142 -133 239 -416 239 -696 0 -220
-32 -303 -169 -442 -98 -98 -154 -133 -247 -154 -151 -33 -363 68 -491 235
-141 184 -161 360 -75 666 70 250 203 425 367 487 23 8 69 12 122 11 74 -3 93
-7 150 -37z m2455 -1551 c15 -34 16 -46 7 -78 -16 -51 -91 -162 -189 -276 -46
-53 -83 -98 -83 -101 0 -27 64 34 158 150 l65 80 -7 -43 c-3 -24 -20 -61 -39
-86 -80 -108 -198 -287 -262 -399 -105 -182 -338 -543 -384 -594 -9 -10 -60
-70 -114 -133 -141 -165 -584 -610 -729 -732 -268 -226 -446 -323 -546 -296
-97 26 -215 128 -374 323 -115 142 -234 324 -293 449 -168 359 -238 583 -222
717 7 60 11 66 32 49 26 -21 18 12 -18 82 -50 95 -75 165 -88 244 -10 60 -9
79 5 128 17 57 45 96 69 96 19 0 47 -34 95 -115 55 -94 170 -226 246 -283 34
-26 97 -73 139 -105 211 -159 414 -219 617 -183 152 27 349 101 529 198 93 50
94 51 73 21 -12 -17 -38 -43 -57 -59 -64 -51 -286 -182 -440 -259 -147 -74
-152 -75 -260 -86 -92 -9 -125 -8 -203 5 -113 20 -229 64 -335 129 -44 26 -81
46 -83 44 -3 -2 4 -23 13 -45 28 -63 180 -180 272 -208 212 -64 567 75 1096
429 193 129 552 410 722 564 44 39 52 44 188 111 249 123 326 188 350 295 7
36 24 25 50 -33z"/>
<path d="M3483 4633 c-41 -99 -63 -341 -64 -713 -1 -355 18 -517 68 -572 37
-41 67 -7 82 92 21 134 43 543 43 775 0 208 -3 252 -21 328 -26 110 -35 127
-67 127 -19 0 -28 -8 -41 -37z"/>
<path d="M1920 4585 c-38 -100 -63 -445 -55 -755 11 -401 39 -560 101 -560 49
0 68 81 85 365 10 168 9 244 -5 475 -15 256 -34 417 -56 475 -13 35 -57 34
-70 0z"/>
<path d="M4020 2388 c-55 -66 -120 -141 -256 -292 -217 -244 -534 -541 -772
-726 -61 -48 -88 -80 -66 -80 7 0 230 179 334 268 84 73 441 430 551 552 170
189 279 318 279 331 0 21 -22 5 -70 -53z"/>
</g>
</svg>
